<svg xmlns="http://www.w3.org/2000/svg" viewBox="0 0 64 64"><path fill="currentColor" fill-rule="evenodd" d="M21 12h22a3 3 0 0 1 3 3v34a3 3 0 0 1-3 3H21a3 3 0 0 1-3-3V15a3 3 0 0 1 3-3Zm6.5 4h13a1.5 1.5 0 0 1 1.5 1.5v29a1.5 1.5 0 0 1-1.5 1.5h-13a1.5 1.5 0 0 1-1.5-1.5v-29a1.5 1.5 0 0 1 1.5-1.5ZM22 16h2v32h-2Z"/><g opacity=".4"><path fill="currentColor" d="M30 32h8a2 2 0 0 1 0 4h-8a2 2 0 0 1 0-4Z"/></g><path fill="var(--nr-icon-accent, #2F99A4)" d="M30 23h8a2 2 0 0 1 0 4h-8a2 2 0 0 1 0-4Z"/></svg>
